HIERARCHY
ROOT Hips
{
  OFFSET 39.0718 98.8034 4.35086
  CHANNELS 6 Xposition Yposition Zposition Zrotation Xrotation Yrotation
  JOINT spine
  {
    OFFSET 0 8.30103 0.477351
    CHANNELS 3 Zrotation Xrotation Yrotation
    JOINT spine1
    {
      OFFSET 0 10.4565 0
      CHANNELS 3 Zrotation Xrotation Yrotation
      JOINT spine2
      {
        OFFSET 0 10.0192 0
        CHANNELS 3 Zrotation Xrotation Yrotation
        JOINT Neck
        {
          OFFSET 0 25.7235 1.22641
          CHANNELS 3 Zrotation Xrotation Yrotation
          JOINT Head
          {
            OFFSET 0 7.77175 0
            CHANNELS 3 Zrotation Xrotation Yrotation
            End Site
            {
              OFFSET 0 18.812 -6.20394
            }
          }
        }
        JOINT RightShoulder
        {
          OFFSET -4.2188 10.82 -0.587439
          CHANNELS 3 Zrotation Xrotation Yrotation
          JOINT RightArm
          {
            OFFSET 0 14.1914 0
            CHANNELS 3 Zrotation Xrotation Yrotation
            JOINT RightArmRoll
            {
              OFFSET 0 7.16408 0
              CHANNELS 3 Zrotation Xrotation Yrotation
              JOINT RightForeArm
              {
                OFFSET 0 20.8665 0
                CHANNELS 3 Zrotation Xrotation Yrotation
                JOINT RightForeArmRoll
                {
                  OFFSET 0 8.03921 0
                  CHANNELS 3 Zrotation Xrotation Yrotation
                  JOINT RightHand
                  {
                    OFFSET 0 16.133 0
                    CHANNELS 3 Zrotation Xrotation Yrotation
                    End Site
                    {
                      OFFSET 0 0 0
                    }
                  }
                }
              }
            }
          }
        }
        JOINT LeftShoulder
        {
          OFFSET 4.2188 10.82 -0.587439
          CHANNELS 3 Zrotation Xrotation Yrotation
          JOINT LeftArm
          {
            OFFSET 0 14.1914 0
            CHANNELS 3 Zrotation Xrotation Yrotation
            JOINT LeftArmRoll
            {
              OFFSET 0 7.16408 0
              CHANNELS 3 Zrotation Xrotation Yrotation
              JOINT LeftForeArm
              {
                OFFSET 0 20.8665 0
                CHANNELS 3 Zrotation Xrotation Yrotation
                JOINT LeftForeArmRoll
                {
                  OFFSET 0 8.03921 0
                  CHANNELS 3 Zrotation Xrotation Yrotation
                  JOINT LeftHand
                  {
                    OFFSET 0 16.133 0
                    CHANNELS 3 Zrotation Xrotation Yrotation
                    End Site
                    {
                      OFFSET 0 0 0
                    }
                  }
                }
              }
            }
          }
        }
      }
    }
  }
  JOINT RightUpLeg
  {
    OFFSET -7.35773 -1.34921 -1.13181
    CHANNELS 3 Zrotation Xrotation Yrotation
    JOINT RightUpLegRoll
    {
      OFFSET 0 18.9168 0
      CHANNELS 3 Zrotation Xrotation Yrotation
      JOINT RightLeg
      {
        OFFSET 0 -23.4256 0
        CHANNELS 3 Zrotation Xrotation Yrotation
        JOINT RightLegRoll
        {
          OFFSET 0 23.5023 0
          CHANNELS 3 Zrotation Xrotation Yrotation
          JOINT RightFoot
          {
            OFFSET 0 19.5617 0
            CHANNELS 3 Zrotation Xrotation Yrotation
            JOINT RightToeBase
            {
              OFFSET 0 16.3526 0
              CHANNELS 3 Zrotation Xrotation Yrotation
              End Site
              {
                OFFSET 0.00693125 7.91944 -0.912837
              }
            }
          }
        }
      }
    }
  }
  JOINT LeftUpLeg
  {
    OFFSET 7.35773 -1.34921 -1.13181
    CHANNELS 3 Zrotation Xrotation Yrotation
    JOINT LeftUpLegRoll
    {
      OFFSET 0 18.9169 0
      CHANNELS 3 Zrotation Xrotation Yrotation
      JOINT LeftLeg
      {
        OFFSET 0 23.4255 0
        CHANNELS 3 Zrotation Xrotation Yrotation
        JOINT LeftLegRoll
        {
          OFFSET 0 23.7195 0
          CHANNELS 3 Zrotation Xrotation Yrotation
          JOINT LeftFoot
          {
            OFFSET 0 19.3444 0
            CHANNELS 3 Zrotation Xrotation Yrotation
            JOINT LeftToeBase
            {
              OFFSET 0 16.3526 0
              CHANNELS 3 Zrotation Xrotation Yrotation
              End Site
              {
                OFFSET -0.0310629 7.91943 -0.912837
              }
            }
          }
        }
      }
    }
  }
}
MOTION
Frames: 9
Frame Time: 0.00208333
39.0315 98.7905 4.23413 0.687925 -2.69292 0.142144 0.099841 -1.39848 0.114734 0.202201 1.19913 0.216777 0.199741 2.84419 0.213503 -4.50668 24.6404 0.590883 2.93013 -9.96982 -0.491938 73.0875 -0.669353 -1.97878 97.9217 22.8979 25.6579 2.06167e-005 6.65696e-006 3.53773e-006 7.16001 0.0522112 -0.0685428 6.72177e-006 -1.3558e-006 -3.0724 8.02925 -4.95141 0.697674 -67.6514 1.62329 0.237222 -99.4451 10.0465 -19.3258 -7.15625e-015 -6.36111e-015 -6.36111e-015 -8.85335 2.34667 0.760975 4.22727e-006 -3.1371e-006 3 -8.02905 -4.95145 -0.697675 175.94 -1.38286 1.01755 180 7.01542e-015 178.901 176.371 5.4936 179.725 -7.94694e-007 3.61862e-006 0.0528721 -18.5284 67.8135 19.3954 8.13649 25.2327 -3.48773 -176.391 -2.06964 1.09669 4.54188e-006 -4.6773e-006 -1.16914 -3.55415 -8.2859 0.406063 2.90857e-006 -7.82371e-006 -0.10935 18.3405 67.5161 -19.1239 -8.13649 25.2327 3.48774 
39.0298 98.7935 4.23488 0.689707 -2.69453 0.145101 0.0992535 -1.39898 0.114563 0.202497 1.19862 0.217567 0.200028 2.84369 0.214288 -4.49849 24.6428 0.584702 2.92324 -9.95763 -0.496796 73.087 -0.672314 -1.98005 97.9152 22.9365 25.635 2.06167e-005 6.65696e-006 3.53773e-006 7.1668 0.0522105 -0.0714048 6.72177e-006 -1.3558e-006 -3.0724 8.02925 -4.95141 0.697674 -67.6481 1.63367 0.231462 -99.4555 10.0672 -19.2798 -1.63003e-014 -6.36111e-015 -6.36111e-015 -8.87559 2.40709 0.766662 4.22727e-006 -3.1371e-006 3 -8.02905 -4.95145 -0.697675 175.94 -1.38564 1.01429 180 7.01542e-015 178.901 176.375 5.48494 179.725 -7.94694e-007 3.61862e-006 0.0528721 -18.5274 67.8123 19.3944 8.13649 25.2327 -3.48773 -176.395 -2.06653 1.10062 4.54188e-006 -4.6773e-006 -1.16914 -3.55238 -8.28669 0.406355 2.90857e-006 -7.82371e-006 -0.10935 18.3416 67.5174 -19.1249 -8.13649 25.2327 3.48774 
39.0315 98.7913 4.23702 0.691489 -2.6962 0.147983 0.0986252 -1.3995 0.114381 0.20282 1.1981 0.218378 0.200341 2.84316 0.215095 -4.49069 24.6449 0.57862 2.91675 -9.94496 -0.50163 73.0861 -0.675334 -1.98132 97.9093 22.9756 25.6107 2.06167e-005 6.65696e-006 3.53773e-006 7.17449 0.0522096 -0.0745392 6.72177e-006 -1.3558e-006 -3.0724 8.02925 -4.95141 0.697674 -67.645 1.64427 0.225605 -99.4659 10.0874 -19.234 -1.43125e-014 -6.36111e-015 -3.18055e-015 -8.89783 2.46746 0.772334 4.22727e-006 -3.1371e-006 3 -8.02905 -4.95145 -0.697675 175.94 -1.38837 1.01091 180 7.01542e-015 178.901 176.379 5.47647 179.724 -7.94694e-007 3.61862e-006 0.0528721 -18.5267 67.8114 19.3936 8.13649 25.2327 -3.48773 -176.398 -2.06378 1.10453 4.54188e-006 -4.6773e-006 -1.16914 -3.55067 -8.28704 0.406655 2.90857e-006 -7.82371e-006 -0.10935 18.3425 67.5186 -19.1257 -8.13649 25.2327 3.48774 
39.0368 98.8213 4.22937 0.693272 -2.69792 0.150813 0.0979683 -1.40004 0.11419 0.203163 1.19757 0.219205 0.200675 2.84263 0.215916 -4.48317 24.6469 0.572609 2.91054 -9.93193 -0.506447 73.0851 -0.678395 -1.98259 97.9039 23.015 25.5856 2.06167e-005 6.65696e-006 3.53773e-006 7.18281 0.0522086 -0.0778643 6.72177e-006 -1.3558e-006 -3.0724 8.02925 -4.95141 0.697674 -67.6419 1.65503 0.219681 -99.4764 10.1074 -19.1883 -3.57812e-015 -4.77083e-015 -3.18055e-015 -8.92007 2.52778 0.777995 4.22727e-006 -3.1371e-006 3 -8.02905 -4.95145 -0.697675 175.94 -1.39109 1.00744 180 7.01542e-015 178.901 176.384 5.46815 179.724 -7.94694e-007 3.61862e-006 0.0528721 -18.526 67.8106 19.3929 8.13649 25.2327 -3.48773 -176.401 -2.06128 1.10843 4.54188e-006 -4.6773e-006 -1.16914 -3.54898 -8.2871 0.406961 2.90857e-006 -7.82371e-006 -0.10935 18.3434 67.5197 -19.1264 -8.13649 25.2327 3.48774 
39.0426 98.8173 4.21472 0.695056 -2.69966 0.153613 0.097295 -1.40057 0.113994 0.203518 1.19703 0.220039 0.201019 2.84209 0.216745 -4.4758 24.6488 0.566636 2.90449 -9.91872 -0.511254 73.084 -0.68148 -1.98385 97.8987 23.0546 25.56 2.06167e-005 6.65696e-006 3.53773e-006 7.19149 0.0522076 -0.0812983 6.72177e-006 -1.3558e-006 -3.0724 8.02925 -4.95141 0.697674 -67.6389 1.66588 0.213719 -99.487 10.1272 -19.1428 -8.82781e-032 -1.59028e-015 -3.18055e-015 -8.94232 2.58808 0.783651 4.22727e-006 -3.1371e-006 3 -8.02905 -4.95145 -0.697675 175.94 -1.39378 1.00393 180 7.01542e-015 178.901 176.389 5.45993 179.723 -7.94694e-007 3.61862e-006 0.0528721 -18.5255 67.8099 19.3923 8.13649 25.2327 -3.48773 -176.405 -2.05891 1.11232 4.54188e-006 -4.6773e-006 -1.16914 -3.54731 -8.28698 0.407269 2.90857e-006 -7.82371e-006 -0.10935 18.3442 67.5207 -19.127 -8.13649 25.2327 3.48774 
39.0451 98.7924 4.20882 0.69684 -2.7014 0.156406 0.0966176 -1.40111 0.113797 0.203875 1.19649 0.220877 0.201366 2.84155 0.217576 -4.46848 24.6507 0.560674 2.89848 -9.90545 -0.516059 73.0828 -0.68457 -1.98512 97.8936 23.0943 25.5343 2.06167e-005 6.65696e-006 3.53773e-006 7.20026 0.0522066 -0.0847595 6.72177e-006 -1.3558e-006 -3.0724 8.02925 -4.95141 0.697674 -67.6359 1.67675 0.207747 -99.4975 10.147 -19.0973 -1.94809e-014 -3.18055e-015 -6.36111e-015 -8.96458 2.64837 0.789307 4.22727e-006 -3.1371e-006 3 -8.02905 -4.95145 -0.697675 175.94 -1.39648 1.0004 180 7.01542e-015 178.901 176.393 5.45173 179.723 -7.94694e-007 3.61862e-006 0.0528721 -18.5249 67.8093 19.3917 8.13649 25.2327 -3.48773 -176.408 -2.05658 1.11621 4.54188e-006 -4.6773e-006 -1.16914 -3.54565 -8.28683 0.407578 2.90857e-006 -7.82371e-006 -0.10935 18.345 67.5217 -19.1277 -8.13649 25.2327 3.48774 
39.0452 98.802 4.20066 0.698625 -2.70314 0.159214 0.0959484 -1.40165 0.113602 0.204226 1.19596 0.221709 0.201708 2.84102 0.218404 -4.46108 24.6527 0.554692 2.89239 -9.89228 -0.520868 73.0817 -0.687649 -1.98638 97.8885 23.1339 25.5088 2.06167e-005 6.65696e-006 3.53773e-006 7.20886 0.0522056 -0.0881662 6.72177e-006 -1.3558e-006 -3.0724 8.02925 -4.95141 0.697674 -67.6329 1.68758 0.201794 -99.5081 10.1669 -19.0518 2.78299e-015 -1.59028e-015 -0 -8.98685 2.70867 0.794967 4.22727e-006 -3.1371e-006 3 -8.02905 -4.95145 -0.697675 175.94 -1.39918 0.996899 180 7.01542e-015 178.901 176.398 5.44349 179.723 -7.94694e-007 3.61862e-006 0.0528721 -18.5243 67.8085 19.391 8.13649 25.2327 -3.48773 -176.412 -2.05418 1.1201 4.54188e-006 -4.6773e-006 -1.16914 -3.54398 -8.28675 0.407885 2.90857e-006 -7.82371e-006 -0.10935 18.3458 67.5227 -19.1283 -8.13649 25.2327 3.48774 
39.0482 98.7988 4.19282 0.700408 -2.70484 0.162059 0.0952996 -1.40218 0.113414 0.204564 1.19543 0.222531 0.202035 2.84049 0.219221 -4.45347 24.6547 0.548659 2.88611 -9.87935 -0.525688 73.0807 -0.690698 -1.98765 97.883 23.1733 25.4839 2.06167e-005 6.65696e-006 3.53773e-006 7.217 0.0522047 -0.0914368 6.72177e-006 -1.3558e-006 -3.0724 8.02925 -4.95141 0.697674 -67.6298 1.69829 0.195889 -99.5187 10.187 -19.0061 3.97569e-015 -1.59028e-015 -3.18055e-015 -9.00915 2.769 0.800637 4.22727e-006 -3.1371e-006 3 -8.02905 -4.95145 -0.697675 175.94 -1.4019 0.993457 180 7.01542e-015 178.901 176.403 5.43513 179.722 -7.94694e-007 3.61862e-006 0.0528721 -18.5236 67.8077 19.3903 8.13649 25.2327 -3.48773 -176.415 -2.0516 1.124 4.54188e-006 -4.6773e-006 -1.16914 -3.54228 -8.2869 0.408189 2.90857e-006 -7.82371e-006 -0.10935 18.3467 67.5238 -19.129 -8.13649 25.2327 3.48774 
39.0522 98.8006 4.18645 0.702192 -2.70649 0.164964 0.0946835 -1.40269 0.113234 0.204879 1.19491 0.223337 0.202341 2.83997 0.220021 -4.44555 24.6569 0.542546 2.87951 -9.86682 -0.530527 73.08 -0.693701 -1.98892 97.8772 23.2123 25.4601 2.06167e-005 6.65696e-006 3.53773e-006 7.22442 0.0522039 -0.0944895 6.72177e-006 -1.3558e-006 -3.0724 8.02925 -4.95141 0.697674 -67.6266 1.70883 0.190061 -99.5293 10.2074 -18.9602 1.19271e-015 -3.18055e-015 -3.18055e-015 -9.03146 2.82939 0.806323 4.22727e-006 -3.1371e-006 3 -8.02905 -4.95145 -0.697675 175.94 -1.40465 0.99011 180 7.01542e-015 178.901 176.407 5.4266 179.722 -7.94694e-007 3.61862e-006 0.0528721 -18.5228 67.8067 19.3894 8.13649 25.2327 -3.48773 -176.418 -2.04875 1.12792 4.54188e-006 -4.6773e-006 -1.16914 -3.54055 -8.28739 0.408487 2.90857e-006 -7.82371e-006 -0.10935 18.3477 67.525 -19.1299 -8.13649 25.2327 3.48774 
